<svg width="83" height="19" viewBox="0 0 83 19" fill="none" xmlns="http://www.w3.org/2000/svg">
<path d="M4.536 17.9805L0.216 1.51647H4.008L6.408 11.3325C6.456 11.4765 6.504 11.6925 6.552 11.9805C6.6 12.2525 6.648 12.5405 6.696 12.8445C6.744 13.1485 6.784 13.4205 6.816 13.6605H6.936C6.968 13.4845 6.992 13.2845 7.008 13.0605C7.04 12.8365 7.072 12.6205 7.104 12.4125C7.152 12.1885 7.192 11.9805 7.224 11.7885C7.272 11.5965 7.304 11.4445 7.32 11.3325L9.552 1.51647H13.824L16.104 11.3325C16.152 11.4925 16.2 11.7085 16.248 11.9805C16.296 12.2525 16.344 12.5405 16.392 12.8445C16.44 13.1485 16.48 13.4205 16.512 13.6605H16.632C16.664 13.4845 16.696 13.2925 16.728 13.0845C16.776 12.8765 16.816 12.6685 16.848 12.4605C16.896 12.2365 16.944 12.0285 16.992 11.8365C17.04 11.6445 17.08 11.4765 17.112 11.3325L19.488 1.51647H22.92L18.576 17.9805H14.496L12.072 7.85247C12.024 7.62847 11.968 7.37247 11.904 7.08447C11.856 6.78047 11.808 6.48447 11.76 6.19647C11.712 5.90847 11.672 5.65247 11.64 5.42847H11.544C11.512 5.65247 11.472 5.91647 11.424 6.22047C11.392 6.52447 11.344 6.82047 11.28 7.10847C11.232 7.39647 11.184 7.64447 11.136 7.85247L8.736 17.9805H4.536ZM24.6688 3.50847V0.628468H28.0048V3.50847H24.6688ZM24.6688 17.9805V5.35647H28.0048V17.9805H24.6688ZM31.0673 3.50847V0.628468H34.4033V3.50847H31.0673ZM31.0673 17.9805V5.35647H34.4033V17.9805H31.0673ZM44.5217 18.2685C43.7057 18.2685 42.9537 18.1085 42.2657 17.7885C41.5937 17.4525 41.0497 16.9485 40.6337 16.2765H40.4657L40.2017 17.9805H37.4657V0.628468H40.8017V6.74847H40.9457C41.2017 6.38047 41.5137 6.06847 41.8817 5.81247C42.2497 5.55647 42.6657 5.37247 43.1297 5.26047C43.5937 5.13247 44.0977 5.06847 44.6417 5.06847C45.6337 5.06847 46.4977 5.30047 47.2337 5.76447C47.9857 6.22847 48.5697 6.94847 48.9857 7.92447C49.4017 8.88447 49.6097 10.1245 49.6097 11.6445C49.6097 13.1645 49.4017 14.4125 48.9857 15.3885C48.5857 16.3645 48.0017 17.0925 47.2337 17.5725C46.4817 18.0365 45.5777 18.2685 44.5217 18.2685ZM43.4897 15.5325C44.1617 15.5325 44.6897 15.4045 45.0737 15.1485C45.4737 14.8765 45.7617 14.4765 45.9377 13.9485C46.1137 13.4205 46.2017 12.7565 46.2017 11.9565V11.4045C46.2017 10.6045 46.1137 9.94047 45.9377 9.41247C45.7617 8.86847 45.4737 8.46847 45.0737 8.21247C44.6897 7.94047 44.1617 7.80447 43.4897 7.80447C43.0097 7.80447 42.6017 7.89247 42.2657 8.06847C41.9297 8.22847 41.6497 8.46847 41.4257 8.78847C41.2177 9.09247 41.0577 9.47647 40.9457 9.94047C40.8337 10.4045 40.7777 10.9165 40.7777 11.4765V11.9085C40.7777 12.6605 40.8737 13.3085 41.0657 13.8525C41.2577 14.3965 41.5537 14.8125 41.9537 15.1005C42.3537 15.3885 42.8657 15.5325 43.4897 15.5325ZM52.0673 3.50847V0.628468H55.4033V3.50847H52.0673ZM52.0673 17.9805V5.35647H55.4033V17.9805H52.0673ZM58.4657 17.9805V0.604468H61.8017V10.6125L66.2177 5.35647H70.1297L65.8097 10.3005L70.3457 17.9805H66.5297L63.6257 12.6525L61.8017 14.4285V17.9805H58.4657ZM77.0689 18.2685C75.6769 18.2685 74.5089 18.0365 73.5649 17.5725C72.6209 17.0925 71.9089 16.3645 71.4289 15.3885C70.9489 14.4125 70.7089 13.1725 70.7089 11.6685C70.7089 10.1485 70.9489 8.90847 71.4289 7.94847C71.9089 6.97247 72.6129 6.25247 73.5409 5.78847C74.4849 5.30847 75.6369 5.06847 76.9969 5.06847C78.2769 5.06847 79.3569 5.30047 80.2369 5.76447C81.1169 6.21247 81.7809 6.91647 82.2289 7.87647C82.6769 8.82047 82.9009 10.0445 82.9009 11.5485V12.4125H74.0929C74.1249 13.1485 74.2369 13.7725 74.4289 14.2845C74.6369 14.7965 74.9489 15.1805 75.3649 15.4365C75.7969 15.6765 76.3649 15.7965 77.0689 15.7965C77.4529 15.7965 77.7969 15.7485 78.1009 15.6525C78.4209 15.5565 78.6929 15.4125 78.9169 15.2205C79.1409 15.0285 79.3169 14.7885 79.4449 14.5005C79.5729 14.2125 79.6369 13.8845 79.6369 13.5165H82.9009C82.9009 14.3165 82.7569 15.0125 82.4689 15.6045C82.1809 16.1965 81.7809 16.6925 81.2689 17.0925C80.7569 17.4765 80.1409 17.7725 79.4209 17.9805C78.7169 18.1725 77.9329 18.2685 77.0689 18.2685ZM74.1409 10.3005H79.4689C79.4689 9.82047 79.4049 9.40447 79.2769 9.05247C79.1649 8.70047 79.0049 8.41247 78.7969 8.18847C78.5889 7.96447 78.3329 7.80447 78.0289 7.70847C77.7409 7.59647 77.4129 7.54047 77.0449 7.54047C76.4369 7.54047 75.9249 7.64447 75.5089 7.85247C75.1089 8.04447 74.7969 8.34847 74.5729 8.76447C74.3649 9.16447 74.2209 9.67647 74.1409 10.3005Z" fill="#07080B"/>
</svg>
