<svg width="83" height="19" viewBox="0 0 83 19" fill="none" xmlns="http://www.w3.org/2000/svg">
<path d="M4.536 17.9803L0.216 1.51635H4.008L6.408 11.3323C6.456 11.4763 6.504 11.6923 6.552 11.9803C6.6 12.2523 6.648 12.5403 6.696 12.8443C6.744 13.1483 6.784 13.4203 6.816 13.6603H6.936C6.968 13.4843 6.992 13.2843 7.008 13.0603C7.04 12.8363 7.072 12.6203 7.104 12.4123C7.152 12.1883 7.192 11.9803 7.224 11.7883C7.272 11.5963 7.304 11.4443 7.32 11.3323L9.552 1.51635H13.824L16.104 11.3323C16.152 11.4923 16.2 11.7083 16.248 11.9803C16.296 12.2523 16.344 12.5403 16.392 12.8443C16.44 13.1483 16.48 13.4203 16.512 13.6603H16.632C16.664 13.4843 16.696 13.2923 16.728 13.0843C16.776 12.8763 16.816 12.6683 16.848 12.4603C16.896 12.2363 16.944 12.0283 16.992 11.8363C17.04 11.6443 17.08 11.4763 17.112 11.3323L19.488 1.51635H22.92L18.576 17.9803H14.496L12.072 7.85235C12.024 7.62835 11.968 7.37235 11.904 7.08435C11.856 6.78035 11.808 6.48435 11.76 6.19635C11.712 5.90835 11.672 5.65235 11.64 5.42835H11.544C11.512 5.65235 11.472 5.91635 11.424 6.22035C11.392 6.52435 11.344 6.82035 11.28 7.10835C11.232 7.39635 11.184 7.64435 11.136 7.85235L8.736 17.9803H4.536ZM24.6688 3.50835V0.628345H28.0048V3.50835H24.6688ZM24.6688 17.9803V5.35635H28.0048V17.9803H24.6688ZM31.0673 3.50835V0.628345H34.4033V3.50835H31.0673ZM31.0673 17.9803V5.35635H34.4033V17.9803H31.0673ZM44.5217 18.2683C43.7057 18.2683 42.9537 18.1083 42.2657 17.7883C41.5937 17.4523 41.0497 16.9483 40.6337 16.2763H40.4657L40.2017 17.9803H37.4657V0.628345H40.8017V6.74835H40.9457C41.2017 6.38035 41.5137 6.06835 41.8817 5.81235C42.2497 5.55635 42.6657 5.37235 43.1297 5.26035C43.5937 5.13235 44.0977 5.06835 44.6417 5.06835C45.6337 5.06835 46.4977 5.30035 47.2337 5.76435C47.9857 6.22835 48.5697 6.94835 48.9857 7.92435C49.4017 8.88435 49.6097 10.1243 49.6097 11.6443C49.6097 13.1643 49.4017 14.4123 48.9857 15.3883C48.5857 16.3643 48.0017 17.0923 47.2337 17.5723C46.4817 18.0363 45.5777 18.2683 44.5217 18.2683ZM43.4897 15.5323C44.1617 15.5323 44.6897 15.4043 45.0737 15.1483C45.4737 14.8763 45.7617 14.4763 45.9377 13.9483C46.1137 13.4203 46.2017 12.7563 46.2017 11.9563V11.4043C46.2017 10.6043 46.1137 9.94035 45.9377 9.41235C45.7617 8.86835 45.4737 8.46835 45.0737 8.21235C44.6897 7.94035 44.1617 7.80435 43.4897 7.80435C43.0097 7.80435 42.6017 7.89235 42.2657 8.06835C41.9297 8.22835 41.6497 8.46835 41.4257 8.78835C41.2177 9.09235 41.0577 9.47635 40.9457 9.94035C40.8337 10.4043 40.7777 10.9163 40.7777 11.4763V11.9083C40.7777 12.6603 40.8737 13.3083 41.0657 13.8523C41.2577 14.3963 41.5537 14.8123 41.9537 15.1003C42.3537 15.3883 42.8657 15.5323 43.4897 15.5323ZM52.0673 3.50835V0.628345H55.4033V3.50835H52.0673ZM52.0673 17.9803V5.35635H55.4033V17.9803H52.0673ZM58.4657 17.9803V0.604346H61.8017V10.6123L66.2177 5.35635H70.1297L65.8097 10.3003L70.3457 17.9803H66.5297L63.6257 12.6523L61.8017 14.4283V17.9803H58.4657ZM77.0689 18.2683C75.6769 18.2683 74.5089 18.0363 73.5649 17.5723C72.6209 17.0923 71.9089 16.3643 71.4289 15.3883C70.9489 14.4123 70.7089 13.1723 70.7089 11.6683C70.7089 10.1483 70.9489 8.90835 71.4289 7.94835C71.9089 6.97235 72.6129 6.25235 73.5409 5.78835C74.4849 5.30835 75.6369 5.06835 76.9969 5.06835C78.2769 5.06835 79.3569 5.30035 80.2369 5.76435C81.1169 6.21235 81.7809 6.91635 82.2289 7.87635C82.6769 8.82035 82.9009 10.0443 82.9009 11.5483V12.4123H74.0929C74.1249 13.1483 74.2369 13.7723 74.4289 14.2843C74.6369 14.7963 74.9489 15.1803 75.3649 15.4363C75.7969 15.6763 76.3649 15.7963 77.0689 15.7963C77.4529 15.7963 77.7969 15.7483 78.1009 15.6523C78.4209 15.5563 78.6929 15.4123 78.9169 15.2203C79.1409 15.0283 79.3169 14.7883 79.4449 14.5003C79.5729 14.2123 79.6369 13.8843 79.6369 13.5163H82.9009C82.9009 14.3163 82.7569 15.0123 82.4689 15.6043C82.1809 16.1963 81.7809 16.6923 81.2689 17.0923C80.7569 17.4763 80.1409 17.7723 79.4209 17.9803C78.7169 18.1723 77.9329 18.2683 77.0689 18.2683ZM74.1409 10.3003H79.4689C79.4689 9.82035 79.4049 9.40435 79.2769 9.05235C79.1649 8.70035 79.0049 8.41235 78.7969 8.18835C78.5889 7.96435 78.3329 7.80435 78.0289 7.70835C77.7409 7.59635 77.4129 7.54035 77.0449 7.54035C76.4369 7.54035 75.9249 7.64435 75.5089 7.85235C75.1089 8.04435 74.7969 8.34835 74.5729 8.76435C74.3649 9.16435 74.2209 9.67635 74.1409 10.3003Z" fill="white"/>
</svg>
